<svg width="24" height="26" viewBox="0 0 24 26" fill="none" xmlns="http://www.w3.org/2000/svg">
<path fill-rule="evenodd" clip-rule="evenodd" d="M6.88832 1.63636H17.1117C20.6857 1.63636 22.9091 4.15863 22.9091 7.72926V17.3616C22.9091 20.9323 20.6857 23.4545 17.1117 23.4545H6.88832C3.31429 23.4545 1.09091 20.9323 1.09091 17.3616V7.72926C1.09091 4.15863 3.32468 1.63636 6.88832 1.63636ZM7.7002 10.584C7.7002 10.1698 7.36441 9.834 6.9502 9.834C6.53598 9.834 6.2002 10.1698 6.2002 10.584V18.0676C6.2002 18.4818 6.53598 18.8176 6.9502 18.8176C7.36441 18.8176 7.7002 18.4818 7.7002 18.0676V10.584ZM12.0414 6.25256C12.4557 6.25256 12.7914 6.58834 12.7914 7.00256V18.0676C12.7914 18.4818 12.4557 18.8176 12.0414 18.8176C11.6272 18.8176 11.2914 18.4818 11.2914 18.0676V7.00256C11.2914 6.58834 11.6272 6.25256 12.0414 6.25256ZM17.7998 14.5385C17.7998 14.1243 17.464 13.7885 17.0498 13.7885C16.6356 13.7885 16.2998 14.1243 16.2998 14.5385V18.0676C16.2998 18.4818 16.6356 18.8176 17.0498 18.8176C17.464 18.8176 17.7998 18.4818 17.7998 18.0676V14.5385Z" fill="#1A434E"/>
</svg>
