<svg width="26" height="25" viewBox="0 0 26 25" fill="none" xmlns="http://www.w3.org/2000/svg">
<path d="M17.7233 6.11961C19.069 6.54946 20.0252 7.75754 20.1445 9.17896M12.6981 23.5522C9.95629 21.8647 7.40561 19.8787 5.09173 17.6297C3.46498 16.01 2.22654 14.0355 1.47128 11.8574C0.112177 7.63197 1.6997 2.79474 6.14247 1.36319C8.4774 0.611494 11.0275 1.04112 12.9951 2.51766C14.9633 1.04293 17.5126 0.613452 19.8477 1.36319C24.2905 2.79474 25.8894 7.63197 24.5302 11.8574C23.775 14.0355 22.5366 16.01 20.9098 17.6297C18.5959 19.8787 16.0452 21.8647 13.3034 23.5522L13.0064 23.7368L12.6981 23.5522Z" stroke="#616161" stroke-width="1.5" stroke-linecap="round" stroke-linejoin="round"/>
</svg>
