<svg width="24" height="23" viewBox="0 0 24 23" fill="none" xmlns="http://www.w3.org/2000/svg">
<path fill-rule="evenodd" clip-rule="evenodd" d="M4.09174 16.6297C6.40561 18.8787 8.9563 20.8647 11.6981 22.5522L12.0064 22.7368L12.3034 22.5522C15.0452 20.8647 17.5959 18.8787 19.9098 16.6297C21.5366 15.01 22.775 13.0355 23.5302 10.8573C24.8894 6.63197 23.2905 1.79473 18.8477 0.363184C16.5126 -0.386551 13.9633 0.042923 11.9951 1.51766C10.0275 0.0411166 7.4774 -0.388509 5.14247 0.363184C0.699702 1.79473 -0.887822 6.63197 0.471285 10.8573C1.22654 13.0355 2.46498 15.01 4.09174 16.6297ZM17.0822 3.5068C16.8098 3.4614 16.5522 3.64541 16.5068 3.9178C16.4614 4.19018 16.6454 4.4478 16.9178 4.49319C17.3396 4.56349 17.9988 4.80388 18.5433 5.28661C19.0729 5.75619 19.5 6.45787 19.5 7.5C19.5 7.77614 19.7239 8 20 8C20.2761 8 20.5 7.77614 20.5 7.5C20.5 6.14213 19.9271 5.17713 19.2067 4.53838C18.5012 3.91278 17.6604 3.60317 17.0822 3.5068Z" fill="#1A434E"/>
</svg>
