<svg width="24" height="26" viewBox="0 0 24 26" fill="none" xmlns="http://www.w3.org/2000/svg">
<path d="M8.40912 23.7112V19.8375C8.40909 18.8521 9.21236 18.0515 10.2076 18.045H13.8532C14.8531 18.045 15.6638 18.8474 15.6638 19.8375V23.7232C15.6635 24.5598 16.3381 25.2436 17.1827 25.2632H19.6132C22.0359 25.2632 24 23.3188 24 20.9202V9.90043C23.9871 8.95683 23.5396 8.07075 22.7848 7.49435L14.4729 0.865639C13.0167 -0.288546 10.9468 -0.288546 9.49064 0.865639L1.2152 7.50639C0.457591 8.08044 0.00933474 8.968 0 9.91245V20.9202C0 23.3188 1.96406 25.2632 4.38683 25.2632H6.81721C7.68297 25.2632 8.3848 24.5683 8.3848 23.7112" fill="#1A434E"/>
</svg>
