<svg width="26" height="28" viewBox="0 0 26 28" fill="none" xmlns="http://www.w3.org/2000/svg">
<path d="M9.40912 24.7112V20.8375C9.40909 19.8521 10.2124 19.0515 11.2076 19.045H14.8532C15.8531 19.045 16.6638 19.8474 16.6638 20.8375V24.7232C16.6635 25.5598 17.3381 26.2436 18.1827 26.2632H20.6132C23.0359 26.2632 25 24.3188 25 21.9202V10.9004C24.9871 9.95683 24.5396 9.07075 23.7848 8.49435L15.4729 1.86564C14.0167 0.711454 11.9468 0.711454 10.4906 1.86564L2.2152 8.50639C1.45759 9.08044 1.00933 9.968 1 10.9125V21.9202C1 24.3188 2.96406 26.2632 5.38683 26.2632H7.81721C8.68297 26.2632 9.3848 25.5683 9.3848 24.7112" stroke="#616161" stroke-width="1.5" stroke-linecap="round" stroke-linejoin="round"/>
</svg>
