<svg width="21" height="26" viewBox="0 0 21 26" fill="none" xmlns="http://www.w3.org/2000/svg">
<path d="M7.77956 23.6222C8.33859 24.3741 9.15952 24.8608 10.0607 24.9745C10.9618 25.0881 11.8689 24.8194 12.5811 24.2277C12.8001 24.0527 12.9972 23.8492 13.1677 23.6222M1.00092 15.1445V14.8817C1.03689 14.1043 1.26939 13.351 1.67444 12.6995C2.34864 11.917 2.81018 10.958 3.01061 9.92319C3.01061 9.12341 3.01061 8.31221 3.0758 7.51244C3.41255 3.66211 6.96482 1 10.4736 1H10.5605C14.0694 1 17.6216 3.66211 17.9692 7.51244C18.0344 8.31221 17.9692 9.12341 18.0235 9.92319C18.2267 10.9604 18.6877 11.9223 19.3598 12.7109C19.7678 13.3567 20.0007 14.1073 20.0333 14.8817V15.1331C20.0575 16.1776 19.7219 17.1962 19.0881 18.0009C18.2508 18.9418 17.1145 19.5272 15.8944 19.6461C12.3166 20.0575 8.70676 20.0575 5.12893 19.6461C3.91019 19.522 2.77553 18.9375 1.93516 18.0009C1.31127 17.1956 0.980111 16.1831 1.00092 15.1445Z" stroke="#616161" stroke-width="1.5" stroke-linecap="round" stroke-linejoin="round"/>
</svg>
