<svg width="24" height="24" viewBox="0 0 24 24" fill="none" xmlns="http://www.w3.org/2000/svg">
<g clip-path="url(#clip0_12_48)">
<path d="M11.9707 -0.0117221C12.0245 -0.0117695 12.0245 -0.0117695 12.0795 -0.0118179C12.5983 -0.0110901 13.0897 0.00678417 13.5938 0.140622C13.641 0.152314 13.641 0.152314 13.6891 0.164242C14.7429 0.427077 15.6826 0.927377 16.5 1.64062C16.5341 1.66902 16.5682 1.69742 16.6033 1.72668C16.8265 1.91494 17.0187 2.11764 17.2031 2.34375C17.2388 2.38707 17.2746 2.4304 17.3113 2.47503C18.1493 3.51351 18.6851 4.76725 18.8027 6.10034C18.8067 6.14447 18.8106 6.1886 18.8147 6.23406C18.8565 6.74771 18.8541 7.26044 18.8496 7.77539C18.8491 7.87231 18.8487 7.96923 18.8483 8.06616C18.8473 8.29932 18.8457 8.53247 18.8438 8.76562C18.8758 8.76853 18.9079 8.77144 18.9409 8.77443C18.9831 8.77841 19.0252 8.78239 19.0686 8.7865C19.1103 8.79037 19.1521 8.79425 19.1951 8.79824C19.711 8.86089 20.1077 9.18284 20.4287 9.57165C20.7625 10.0373 20.8402 10.4985 20.8308 11.0616C20.8305 11.1222 20.8303 11.1829 20.83 11.2454C20.8293 11.4048 20.8275 11.5643 20.8254 11.7237C20.8234 11.8871 20.8226 12.0505 20.8217 12.214C20.8197 12.5333 20.8165 12.8526 20.8125 13.1719C20.8525 13.1714 20.8525 13.1714 20.8933 13.1709C21.1724 13.1678 21.4515 13.1657 21.7306 13.1641C21.8346 13.1634 21.9386 13.1625 22.0425 13.1613C22.1925 13.1595 22.3425 13.1588 22.4925 13.1581C22.5385 13.1574 22.5845 13.1567 22.6319 13.1559C23.0281 13.1558 23.393 13.2198 23.687 13.5039C23.9551 13.8104 24.0348 14.1431 24.0296 14.5401C24.0301 14.6078 24.0301 14.6078 24.0306 14.677C24.0314 14.8248 24.0305 14.9726 24.0295 15.1205C24.0295 15.224 24.0296 15.3275 24.0298 15.4311C24.03 15.6474 24.0293 15.8637 24.028 16.08C24.0264 16.3567 24.0267 16.6333 24.0275 16.91C24.028 17.1235 24.0276 17.337 24.0269 17.5506C24.0267 17.6526 24.0267 17.7546 24.027 17.8566C24.0272 17.9993 24.0263 18.1419 24.025 18.2846C24.0253 18.3263 24.0256 18.3681 24.0259 18.4111C24.0207 18.7534 23.925 18.9947 23.7012 19.2539C23.2966 19.6007 22.9388 19.6554 22.4238 19.6498C22.3775 19.6496 22.3313 19.6495 22.2836 19.6494C22.137 19.6489 21.9904 19.6477 21.8438 19.6465C21.7438 19.646 21.6439 19.6456 21.544 19.6452C21.3002 19.6442 21.0563 19.6426 20.8125 19.6406C20.813 19.6902 20.813 19.6902 20.8134 19.7407C20.8163 20.0537 20.8184 20.3667 20.8198 20.6798C20.8205 20.8407 20.8215 21.0015 20.8231 21.1624C20.8249 21.3479 20.8256 21.5334 20.8262 21.7189C20.827 21.7759 20.8277 21.833 20.8284 21.8917C20.8286 22.5054 20.6604 23.0054 20.25 23.4697C19.9204 23.7816 19.4246 24.0054 18.9716 24.0063C18.9213 24.0065 18.871 24.0067 18.8191 24.0069C18.7638 24.0069 18.7085 24.0069 18.6516 24.0069C18.5928 24.0071 18.5341 24.0072 18.4735 24.0074C18.3103 24.0079 18.1472 24.0081 17.984 24.0082C17.808 24.0084 17.632 24.0088 17.456 24.0092C17.031 24.0102 16.6059 24.0106 16.1809 24.011C15.9806 24.0113 15.7804 24.0115 15.5802 24.0117C14.9144 24.0125 14.2486 24.0132 13.5828 24.0136C13.4101 24.0137 13.2373 24.0137 13.0646 24.0138C13.0002 24.0139 13.0002 24.0139 12.9345 24.0139C12.2392 24.0143 11.5439 24.0155 10.8486 24.017C10.1345 24.0186 9.42039 24.0194 8.70631 24.0195C8.30547 24.0196 7.90464 24.0201 7.50381 24.0213C7.16238 24.0223 6.82097 24.0226 6.47954 24.0222C6.30546 24.022 6.13139 24.0221 5.9573 24.023C5.76823 24.024 5.57918 24.0235 5.3901 24.0229C5.33556 24.0234 5.28101 24.0239 5.22481 24.0244C4.64877 24.0199 4.16603 23.8296 3.7425 23.4375C3.37647 23.0544 3.18103 22.6132 3.18218 22.0832C3.18219 22.0016 3.18219 22.0016 3.18219 21.9183C3.18243 21.86 3.18268 21.8018 3.18293 21.7418C3.18299 21.6817 3.18306 21.6217 3.18313 21.5599C3.18331 21.4009 3.18376 21.2419 3.18428 21.083C3.18477 20.9205 3.18498 20.7581 3.18521 20.5956C3.18573 20.2773 3.18652 19.959 3.1875 19.6406C3.12606 19.6414 3.06461 19.6421 3.00131 19.6429C2.77155 19.6454 2.5418 19.647 2.31203 19.6483C2.21292 19.6491 2.11382 19.65 2.01471 19.6512C1.87158 19.653 1.72847 19.6537 1.58533 19.6544C1.51975 19.6554 1.51975 19.6554 1.45284 19.6566C1.02757 19.6567 0.593237 19.576 0.281253 19.2656C0.114835 19.0447 -0.00503601 18.8399 -0.00721073 18.5583C-0.00761388 18.5193 -0.00801702 18.4804 -0.00843239 18.4402C-0.00863207 18.3976 -0.00883176 18.3551 -0.00903749 18.3112C-0.00942081 18.2662 -0.00980413 18.2212 -0.0101991 18.1748C-0.0113638 18.0257 -0.0121384 17.8765 -0.012814 17.7274C-0.0130636 17.6764 -0.013313 17.6254 -0.0135701 17.5728C-0.0148232 17.3027 -0.0157314 17.0326 -0.0164075 16.7624C-0.017032 16.5392 -0.0183361 16.316 -0.0202527 16.0929C-0.0225691 15.8231 -0.023726 15.5534 -0.0240586 15.2836C-0.0243725 15.181 -0.0250846 15.0784 -0.0262101 14.9759C-0.0277 14.8318 -0.0276943 14.6878 -0.027348 14.5438C-0.0285015 14.4809 -0.0285015 14.4809 -0.0296783 14.4167C-0.0262741 14.0685 0.0814975 13.7685 0.313014 13.5039C0.647065 13.181 1.06443 13.1511 1.50751 13.1581C1.55581 13.1583 1.60412 13.1585 1.65389 13.1587C1.80671 13.1595 1.9595 13.1613 2.11231 13.1631C2.21653 13.1638 2.32074 13.1644 2.42496 13.165C2.67915 13.1665 2.93333 13.1689 3.1875 13.1719C3.18688 13.1216 3.18688 13.1216 3.18624 13.0703C3.18246 12.7525 3.17962 12.4347 3.17779 12.1168C3.17682 11.9534 3.1755 11.7901 3.17336 11.6267C3.17091 11.4384 3.17002 11.25 3.16919 11.0616C3.16823 11.0037 3.16726 10.9459 3.16626 10.8863C3.1661 10.2527 3.38131 9.76449 3.80274 9.2959C4.16322 8.95295 4.66271 8.76562 5.15625 8.76562C5.15576 8.70712 5.15527 8.64862 5.15477 8.58835C5.15304 8.36592 5.15198 8.14349 5.1511 7.92105C5.15064 7.82579 5.15001 7.73053 5.14918 7.63527C5.14485 7.12158 5.15162 6.61229 5.19727 6.10034C5.20268 6.03902 5.20268 6.03902 5.2082 5.97647C5.36717 4.3718 6.19944 2.72402 7.43921 1.68127C7.49251 1.63795 7.49251 1.63795 7.54688 1.59375C7.59014 1.5581 7.63341 1.52245 7.67798 1.48571C8.91585 0.486624 10.3852 -0.0104739 11.9707 -0.0117221ZM7.35938 3C6.73139 3.73992 6.32098 4.68257 6.12598 5.62793C6.1185 5.66383 6.11102 5.69974 6.10332 5.73674C5.97327 6.42431 5.99392 7.12863 5.99707 7.82519C5.99731 7.91684 5.99752 8.00848 5.99771 8.10012C5.99818 8.32196 5.9991 8.54379 6 8.76562C6.52594 8.76562 7.05188 8.76562 7.59375 8.76562C7.59496 8.58876 7.59617 8.41189 7.59742 8.22967C7.59922 8.05575 7.60134 7.88182 7.60348 7.7079C7.60479 7.58831 7.60579 7.46871 7.60646 7.34911C7.61507 5.88472 7.90769 4.69036 8.94727 3.60058C9.85664 2.72456 11.0498 2.41449 12.2792 2.42743C13.4341 2.45627 14.4944 3.01696 15.2877 3.8388C15.91 4.54201 16.3537 5.50865 16.369 6.45609C16.3699 6.50768 16.3709 6.55928 16.3718 6.61244C16.373 6.69485 16.373 6.69485 16.3742 6.77893C16.3752 6.83575 16.3762 6.89258 16.3772 6.95113C16.3802 7.13213 16.383 7.31313 16.3857 7.49414C16.3878 7.61706 16.3898 7.73999 16.3919 7.86291C16.3969 8.16381 16.4016 8.46471 16.4063 8.76562C16.9322 8.76562 17.4581 8.76562 18 8.76562C18.0201 6.36232 17.9287 4.3178 16.1689 2.50781C15.4105 1.74958 14.4786 1.27357 13.4531 0.984372C13.3968 0.968359 13.3405 0.952347 13.2825 0.935849C11.0321 0.412233 8.85355 1.33756 7.35938 3ZM9.5625 4.17187C9.51972 4.20822 9.51972 4.20822 9.47608 4.2453C8.88829 4.77831 8.62396 5.53543 8.4375 6.28125C8.4375 7.10109 8.4375 7.92093 8.4375 8.76562C10.7888 8.76562 13.14 8.76562 15.5625 8.76562C15.6778 6.90993 15.6778 6.90993 15.1992 5.18847C15.1752 5.14185 15.1752 5.14185 15.1506 5.09428C15.006 4.82272 14.8325 4.58678 14.625 4.35937C14.6008 4.33085 14.5765 4.30233 14.5516 4.27295C13.9868 3.65014 13.075 3.26538 12.2481 3.21936C11.2341 3.1853 10.32 3.48076 9.5625 4.17187ZM4.21875 10.125C3.80549 11.0548 4.03125 12.1543 4.03125 13.1719C9.29063 13.1719 14.55 13.1719 19.9688 13.1719C20.1739 11.4161 20.1739 11.4161 19.6377 9.94629C19.2784 9.61675 18.818 9.58183 18.3522 9.58556C18.2955 9.58527 18.2387 9.58498 18.1803 9.58468C18.0242 9.58406 17.8682 9.58428 17.7122 9.58486C17.5433 9.58529 17.3745 9.58463 17.2057 9.58411C16.8755 9.58328 16.5453 9.58346 16.2151 9.584C15.9466 9.58443 15.6781 9.58448 15.4096 9.58428C15.3522 9.58424 15.3522 9.58424 15.2936 9.58419C15.2158 9.58413 15.138 9.58407 15.0602 9.58401C14.3316 9.58348 13.603 9.58409 12.8744 9.5851C12.25 9.58594 11.6256 9.58579 11.0011 9.58493C10.275 9.58392 9.54896 9.58353 8.82288 9.5841C8.74538 9.58416 8.66787 9.58422 8.59037 9.58428C8.55224 9.58431 8.51412 9.58434 8.47483 9.58437C8.20684 9.58453 7.93885 9.58426 7.67085 9.58382C7.34402 9.58329 7.01719 9.58344 6.69036 9.58443C6.52377 9.58492 6.3572 9.58512 6.19061 9.5845C6.00966 9.58383 5.82874 9.58463 5.64779 9.58556C5.59566 9.58514 5.54352 9.58473 5.48981 9.58429C4.96707 9.58951 4.55212 9.70999 4.21875 10.125ZM0.890628 14.1562C0.813263 14.311 0.835997 14.4834 0.835456 14.6535C0.835148 14.6953 0.83484 14.7371 0.834523 14.7801C0.833597 14.9187 0.833051 15.0573 0.832584 15.1959C0.832393 15.2432 0.832202 15.2904 0.832005 15.3391C0.831027 15.5892 0.830357 15.8392 0.829917 16.0893C0.829398 16.3479 0.827785 16.6065 0.825925 16.8651C0.824701 17.0637 0.824307 17.2622 0.824139 17.4608C0.82391 17.5562 0.823363 17.6515 0.822496 17.7469C0.821358 17.8802 0.821397 18.0135 0.821723 18.1468C0.821123 18.1863 0.820523 18.2258 0.819904 18.2665C0.821428 18.437 0.827195 18.5401 0.930091 18.6793C1.12128 18.8129 1.30287 18.8036 1.52674 18.803C1.58172 18.8032 1.58172 18.8032 1.63782 18.8033C1.76167 18.8036 1.88552 18.8035 2.00937 18.8035C2.09865 18.8036 2.18793 18.8037 2.27721 18.8039C2.52336 18.8043 2.7695 18.8043 3.01565 18.8044C3.2808 18.8045 3.54595 18.8048 3.8111 18.8051C4.39121 18.8058 4.97133 18.806 5.55145 18.8063C5.91343 18.8064 6.27542 18.8066 6.63741 18.8068C7.63899 18.8074 8.64058 18.8079 9.64216 18.808C9.70694 18.808 9.77172 18.808 9.8365 18.808C9.90144 18.808 9.96638 18.8081 10.0313 18.8081C10.1616 18.8081 10.2919 18.8081 10.4222 18.8081C10.4545 18.8081 10.4868 18.8081 10.52 18.8081C11.5678 18.8083 12.6156 18.8091 13.6634 18.8102C14.7708 18.8113 15.8782 18.812 16.9856 18.812C17.5894 18.8121 18.1932 18.8123 18.797 18.8132C19.311 18.8139 19.8251 18.8141 20.3391 18.8137C20.6016 18.8136 20.864 18.8136 21.1264 18.8143C21.3665 18.8149 21.6065 18.8148 21.8465 18.8142C21.9336 18.8141 22.0206 18.8143 22.1076 18.8147C22.2256 18.8152 22.3435 18.8149 22.4615 18.8143C22.5126 18.8148 22.5126 18.8148 22.5648 18.8154C22.8258 18.8127 22.9737 18.7451 23.1563 18.5625C23.1658 18.4265 23.1695 18.295 23.1691 18.159C23.1694 18.1172 23.1696 18.0754 23.1699 18.0324C23.1705 17.8938 23.1705 17.7552 23.1704 17.6166C23.1705 17.5205 23.1707 17.4244 23.171 17.3283C23.1713 17.1266 23.1713 16.9249 23.1711 16.7232C23.1708 16.4646 23.1716 16.206 23.1727 15.9474C23.1734 15.7488 23.1734 15.5502 23.1732 15.3517C23.1733 15.2563 23.1735 15.161 23.174 15.0656C23.1746 14.9323 23.1742 14.799 23.1737 14.6657C23.1741 14.6262 23.1744 14.5867 23.1748 14.546C23.1734 14.3896 23.1683 14.2724 23.0936 14.1332C22.9277 13.9828 22.729 14.009 22.5187 14.0095C22.4819 14.0094 22.445 14.0093 22.4071 14.0092C22.2827 14.0089 22.1583 14.009 22.034 14.009C21.9443 14.0089 21.8546 14.0088 21.7649 14.0086C21.5177 14.0082 21.2705 14.0082 21.0233 14.0081C20.757 14.008 20.4907 14.0077 20.2244 14.0074C19.6418 14.0067 19.0591 14.0064 18.4765 14.0062C18.1129 14.0061 17.7494 14.0059 17.3858 14.0057C16.3799 14.0051 15.374 14.0046 14.3681 14.0045C14.303 14.0045 14.2379 14.0045 14.1729 14.0045C14.1076 14.0044 14.0424 14.0044 13.9772 14.0044C13.8464 14.0044 13.7155 14.0044 13.5847 14.0044C13.5522 14.0044 13.5198 14.0044 13.4864 14.0043C12.434 14.0042 11.3817 14.0034 10.3293 14.0023C9.21717 14.0012 8.10498 14.0005 6.9928 14.0005C6.38637 14.0004 5.77993 14.0002 5.1735 13.9993C4.65722 13.9986 4.14095 13.9984 3.62467 13.9987C3.3611 13.9989 3.09753 13.9989 2.83396 13.9982C2.59288 13.9976 2.3518 13.9977 2.11072 13.9983C2.02331 13.9983 1.9359 13.9982 1.84849 13.9978C1.73003 13.9973 1.61159 13.9976 1.49313 13.9982C1.45889 13.9978 1.42465 13.9975 1.38937 13.9971C1.18425 13.9992 1.05381 14.0301 0.890628 14.1562ZM4.03125 19.6406C3.82056 21.3648 3.82056 21.3648 4.36066 22.8486C4.40498 22.8849 4.40498 22.8849 4.4502 22.9219C4.47963 22.947 4.50905 22.9721 4.53937 22.998C4.83847 23.1884 5.14799 23.1697 5.49029 23.1688C5.54804 23.169 5.60579 23.1692 5.66529 23.1694C5.82525 23.1699 5.98519 23.17 6.14515 23.1699C6.3178 23.1699 6.49044 23.1704 6.66309 23.1708C7.00121 23.1716 7.33933 23.1719 7.67745 23.1719C7.95233 23.172 8.22721 23.1721 8.50209 23.1724C9.28166 23.1733 10.0612 23.1737 10.8408 23.1736C10.8828 23.1736 10.9248 23.1736 10.9681 23.1736C11.0102 23.1736 11.0523 23.1736 11.0956 23.1736C11.7773 23.1736 12.459 23.1745 13.1407 23.1758C13.841 23.1771 14.5412 23.1778 15.2414 23.1777C15.6344 23.1777 16.0274 23.1779 16.4204 23.1789C16.7551 23.1798 17.0897 23.18 17.4243 23.1794C17.595 23.1791 17.7656 23.179 17.9363 23.1799C18.1215 23.1807 18.3067 23.1801 18.4919 23.1794C18.5724 23.1801 18.5724 23.1801 18.6545 23.1809C19.0219 23.1777 19.3192 23.1174 19.608 22.8799C19.6323 22.8503 19.6566 22.8206 19.6816 22.79C19.7067 22.7607 19.7317 22.7314 19.7574 22.7012C20.3463 21.8057 19.9688 20.677 19.9688 19.6406C14.7094 19.6406 9.45 19.6406 4.03125 19.6406Z" fill="#1A434E"/>
<path d="M12.2344 14.8125C12.3486 14.9004 12.3486 14.9004 12.4219 15.0469C12.4367 15.22 12.4328 15.3893 12.4219 15.5625C12.4621 15.5354 12.5022 15.5084 12.5436 15.4805C12.5978 15.4453 12.6519 15.4101 12.7061 15.375C12.7324 15.3571 12.7587 15.3392 12.7858 15.3208C12.9843 15.1938 13.126 15.1622 13.3594 15.1875C13.5203 15.2784 13.5798 15.3348 13.6406 15.5098C13.6406 15.6959 13.5983 15.7791 13.5 15.9375C13.3951 16.033 13.2811 16.1111 13.1631 16.1895C13.1171 16.2211 13.1171 16.2211 13.0702 16.2534C12.9951 16.3049 12.9195 16.3556 12.8438 16.4063C12.9132 16.4554 12.9132 16.4554 12.984 16.5055C13.0447 16.5486 13.1053 16.5917 13.166 16.6348C13.1965 16.6563 13.227 16.6779 13.2585 16.7001C13.2878 16.721 13.3171 16.7418 13.3473 16.7633C13.3878 16.792 13.3878 16.792 13.4291 16.8213C13.5565 16.9178 13.592 16.9623 13.6348 17.1211C13.6419 17.3365 13.5891 17.415 13.4531 17.5781C13.3072 17.6511 13.1927 17.6384 13.0312 17.625C12.8762 17.543 12.8762 17.543 12.7295 17.4375C12.6802 17.4027 12.631 17.3679 12.5803 17.332C12.5435 17.305 12.5067 17.2779 12.4688 17.25C12.4681 17.2845 12.4674 17.319 12.4667 17.3546C12.4559 17.5762 12.4475 17.726 12.3252 17.915C12.1717 18.0097 12.0809 18.0356 11.9031 18.0218C11.7309 17.9804 11.6733 17.9128 11.5781 17.7656C11.5458 17.5937 11.5346 17.4247 11.5312 17.25C11.5023 17.2731 11.4734 17.2963 11.4435 17.3201C11.19 17.5119 10.9698 17.6685 10.6406 17.625C10.5 17.5547 10.5 17.5547 10.4062 17.4375C10.3559 17.2644 10.3356 17.1622 10.4105 16.9959C10.5215 16.8459 10.654 16.751 10.8076 16.6494C10.8491 16.6208 10.8491 16.6208 10.8914 16.5916C11.096 16.4531 11.096 16.4531 11.2031 16.4531C11.2031 16.4222 11.2031 16.3913 11.2031 16.3594C11.1534 16.3418 11.1534 16.3418 11.1026 16.3239C10.9536 16.259 10.8337 16.1791 10.7021 16.084C10.6575 16.0522 10.6128 16.0204 10.5668 15.9877C10.4568 15.8938 10.4052 15.8385 10.3594 15.7031C10.3629 15.5078 10.3763 15.4094 10.5059 15.2607C10.6869 15.1624 10.7637 15.1511 10.9688 15.1875C11.3748 15.4061 11.3748 15.4061 11.5312 15.5625C11.5325 15.528 11.5337 15.4935 11.5349 15.4579C11.5567 15.0825 11.5567 15.0825 11.666 14.9004C11.852 14.7363 12.0025 14.7555 12.2344 14.8125Z" fill="#1A434E"/>
<path d="M16.6406 14.8125C16.7578 14.9004 16.7578 14.9004 16.8281 15.0469C16.8427 15.22 16.839 15.3893 16.8281 15.5625C16.8683 15.5354 16.9085 15.5084 16.9499 15.4805C17.004 15.4453 17.0581 15.4101 17.1123 15.375C17.1386 15.3571 17.1649 15.3392 17.192 15.3208C17.3903 15.1939 17.5324 15.1606 17.7656 15.1875C17.9025 15.2807 17.9818 15.3484 18.0225 15.5127C18.0346 15.6857 18.0164 15.7737 17.915 15.917C17.7459 16.0611 17.5489 16.1723 17.3591 16.2867C17.2452 16.3495 17.2452 16.3495 17.2031 16.4531C17.2362 16.4647 17.2694 16.4763 17.3035 16.4883C17.4544 16.5543 17.5744 16.6369 17.707 16.7344C17.7748 16.7837 17.7748 16.7837 17.844 16.834C17.9531 16.9219 17.9531 16.9219 18 17.0156C18.0323 17.3437 18.0323 17.3437 17.9033 17.5313C17.7289 17.65 17.6458 17.646 17.4375 17.625C17.2824 17.543 17.2824 17.543 17.1357 17.4375C17.0865 17.4027 17.0372 17.3679 16.9865 17.332C16.9497 17.305 16.9129 17.2779 16.875 17.25C16.8704 17.2924 16.8658 17.3347 16.8611 17.3784C16.8541 17.4336 16.8471 17.4889 16.8398 17.5459C16.8333 17.6008 16.8268 17.6558 16.8201 17.7123C16.7812 17.8594 16.7812 17.8594 16.6954 17.9478C16.5377 18.0288 16.3891 18.0341 16.2187 18C16.0811 17.915 16.0811 17.915 15.9844 17.7656C15.952 17.5937 15.9409 17.4247 15.9375 17.25C15.8968 17.2771 15.856 17.3041 15.8141 17.332C15.7595 17.3672 15.705 17.4024 15.6504 17.4375C15.6237 17.4554 15.597 17.4733 15.5695 17.4917C15.3876 17.6074 15.2616 17.6522 15.0469 17.625C14.8712 17.5274 14.8221 17.4706 14.7656 17.2764C14.7656 17.0843 14.7951 17.0281 14.9062 16.875C15.0278 16.7734 15.0278 16.7734 15.1641 16.6787C15.209 16.6471 15.254 16.6155 15.3003 16.583C15.3874 16.5236 15.4748 16.4647 15.5625 16.4063C15.528 16.3814 15.4935 16.3565 15.4579 16.3308C15.3893 16.2811 15.3893 16.2811 15.3193 16.2305C15.2742 16.1978 15.2291 16.1652 15.1826 16.1316C15.1378 16.0985 15.093 16.0654 15.0469 16.0313C15.0037 16 14.9605 15.9687 14.916 15.9364C14.7796 15.8143 14.7646 15.741 14.7537 15.5643C14.7773 15.3753 14.8525 15.3079 15 15.1875C15.229 15.1313 15.3189 15.1557 15.5242 15.2721C15.665 15.3653 15.8022 15.4615 15.9375 15.5625C15.9387 15.528 15.9399 15.4935 15.9412 15.458C15.9679 14.9979 15.9679 14.9979 16.1719 14.8125C16.3262 14.7353 16.4801 14.7681 16.6406 14.8125Z" fill="#1A434E"/>
<path d="M3.42187 14.8125C3.55721 14.9162 3.60382 14.9726 3.63793 15.1414C3.64011 15.1914 3.64228 15.2414 3.64452 15.293C3.64718 15.3435 3.64984 15.394 3.65258 15.446C3.65379 15.4845 3.655 15.5229 3.65624 15.5625C3.6925 15.5354 3.72875 15.5084 3.76611 15.4805C4.21525 15.1603 4.21525 15.1603 4.42675 15.1465C4.59852 15.1887 4.68904 15.2342 4.79058 15.3825C4.84434 15.506 4.85279 15.6176 4.82665 15.7493C4.73121 15.9479 4.53784 16.0533 4.35937 16.1719C4.24959 16.2495 4.14045 16.3279 4.03124 16.4062C4.07698 16.4379 4.12273 16.4696 4.16985 16.5022C4.23011 16.5444 4.29035 16.5867 4.35058 16.6289C4.3807 16.6497 4.41082 16.6705 4.44186 16.6919C4.59605 16.8005 4.73152 16.8962 4.82812 17.0625C4.85554 17.2466 4.84433 17.3194 4.74023 17.4756C4.62514 17.5941 4.5834 17.6208 4.42053 17.6396C4.22736 17.6214 4.10064 17.5428 3.94335 17.4375C3.91556 17.4196 3.88776 17.4017 3.85912 17.3833C3.79113 17.3394 3.72363 17.2948 3.65624 17.25C3.65443 17.3018 3.65443 17.3018 3.65258 17.3546C3.64062 17.5603 3.62747 17.7272 3.53906 17.915C3.38783 18.0247 3.28328 18.0303 3.0996 18.0203C2.95712 17.9912 2.89511 17.9295 2.81249 17.8125C2.75545 17.6984 2.75064 17.6054 2.73925 17.4785C2.73336 17.4145 2.73336 17.4145 2.72735 17.3492C2.72309 17.3001 2.72309 17.3001 2.71874 17.25C2.68303 17.2776 2.64732 17.3052 2.61053 17.3337C2.16565 17.6575 2.16565 17.6575 1.91894 17.6367C1.79855 17.6081 1.73725 17.5803 1.63769 17.5049C1.57387 17.339 1.55832 17.1886 1.59374 17.0156C1.7666 16.7794 2.04826 16.6058 2.29687 16.4531C2.32781 16.4531 2.35874 16.4531 2.39062 16.4531C2.21662 16.2655 2.02065 16.1475 1.80285 16.0164C1.68749 15.9375 1.68749 15.9375 1.59374 15.7969C1.56778 15.567 1.55829 15.4734 1.69042 15.2812C1.8652 15.1622 1.94732 15.1666 2.15624 15.1875C2.27443 15.2461 2.37377 15.3018 2.48144 15.375C2.50902 15.3929 2.53661 15.4108 2.56503 15.4292C2.63232 15.473 2.69904 15.5176 2.76562 15.5625C2.76317 15.5158 2.76317 15.5158 2.76067 15.4682C2.74757 15.0407 2.74757 15.0407 2.90624 14.8594C3.07286 14.7285 3.22438 14.7631 3.42187 14.8125Z" fill="#1A434E"/>
<path d="M7.82812 14.8125C7.96599 14.9214 8.00857 15.0044 8.03722 15.1771C8.04947 15.3057 8.05797 15.4334 8.06249 15.5625C8.09875 15.5354 8.135 15.5084 8.17236 15.4805C8.62123 15.1605 8.62123 15.1605 8.83593 15.1523C8.99999 15.1875 8.99999 15.1875 9.11425 15.2607C9.2118 15.4129 9.2312 15.5228 9.23437 15.7031C9.13214 15.9366 8.96097 16.0483 8.75683 16.1865C8.71083 16.2185 8.71083 16.2185 8.6639 16.2511C8.58872 16.3032 8.51314 16.3548 8.43749 16.4063C8.48323 16.4374 8.52898 16.4685 8.5761 16.5006C8.63636 16.5423 8.6966 16.5841 8.75683 16.626C8.78695 16.6464 8.81707 16.6668 8.84811 16.6878C9.02138 16.809 9.14685 16.9103 9.23437 17.1094C9.23437 17.309 9.21927 17.4021 9.08495 17.5518C8.92566 17.6403 8.85242 17.6443 8.67187 17.625C8.55671 17.5662 8.45601 17.5088 8.3496 17.4375C8.32181 17.4196 8.29401 17.4017 8.26537 17.3833C8.19738 17.3394 8.12988 17.2948 8.06249 17.25C8.06183 17.2845 8.06116 17.319 8.06048 17.3546C8.04965 17.5762 8.04127 17.726 7.91894 17.915C7.72685 18.0336 7.63001 18.0284 7.40624 18C7.30462 17.9478 7.30462 17.9478 7.21874 17.8594C7.17992 17.7123 7.17992 17.7123 7.16015 17.5459C7.15314 17.4906 7.14613 17.4353 7.13891 17.3784C7.13432 17.336 7.12972 17.2936 7.12499 17.25C7.08928 17.2776 7.05357 17.3052 7.01678 17.3337C6.5719 17.6575 6.5719 17.6575 6.32519 17.6367C6.2048 17.6082 6.1435 17.5803 6.04394 17.5049C5.98012 17.339 5.96457 17.1886 5.99999 17.0156C6.17285 16.7794 6.45451 16.6058 6.70312 16.4531C6.73406 16.4531 6.76499 16.4531 6.79687 16.4531C6.65244 16.2972 6.49801 16.1867 6.31933 16.0723C6.05204 15.901 6.05204 15.901 5.99999 15.7969C5.98062 15.6535 5.97787 15.5181 5.99999 15.375C6.09667 15.2549 6.09667 15.2549 6.23437 15.1875C6.50545 15.1592 6.66817 15.2258 6.88769 15.375C6.91527 15.3929 6.94286 15.4108 6.97128 15.4292C7.03857 15.473 7.10529 15.5176 7.17187 15.5625C7.16969 15.528 7.16752 15.4935 7.16528 15.4579C7.15138 15.0822 7.15138 15.0822 7.25683 14.9004C7.44599 14.7383 7.5943 14.7551 7.82812 14.8125Z" fill="#1A434E"/>
<path d="M19.7978 17.1441C19.8713 17.1437 19.8713 17.1437 19.9462 17.1432C19.9986 17.1434 20.051 17.1436 20.105 17.1438C20.1864 17.1437 20.1864 17.1437 20.2694 17.1435C20.384 17.1435 20.4985 17.1436 20.6131 17.144C20.7884 17.1445 20.9637 17.144 21.139 17.1434C21.2504 17.1435 21.3618 17.1436 21.4731 17.1438C21.5255 17.1436 21.5779 17.1434 21.6319 17.1432C21.6809 17.1435 21.7299 17.1438 21.7803 17.1441C21.8232 17.1442 21.8661 17.1443 21.9103 17.1443C22.0796 17.161 22.2136 17.2107 22.3493 17.3132C22.4227 17.413 22.4265 17.4755 22.4268 17.5986C22.4277 17.6343 22.4286 17.6701 22.4295 17.7069C22.397 17.8544 22.3355 17.9056 22.2187 18C22.0907 18.0235 22.0907 18.0235 21.9423 18.0235C21.8587 18.0242 21.8587 18.0242 21.7735 18.0249C21.7135 18.0243 21.6536 18.0238 21.5918 18.0233C21.4992 18.0234 21.4992 18.0234 21.4048 18.0235C21.2743 18.0235 21.1438 18.0229 21.0133 18.0219C20.8462 18.0205 20.6791 18.0207 20.512 18.0213C20.3524 18.0217 20.1928 18.021 20.0332 18.0203C19.9433 18.0205 19.9433 18.0205 19.8515 18.0207C19.7958 18.0201 19.7401 18.0196 19.6827 18.0189C19.6338 18.0187 19.5848 18.0184 19.5343 18.0182C19.3868 17.9972 19.3229 17.9651 19.2187 17.8594C19.1692 17.6547 19.1481 17.5453 19.2246 17.3496C19.3834 17.1696 19.5658 17.1445 19.7978 17.1441Z" fill="#1A434E"/>
<path d="M5.68533 10.3481C5.77945 10.3477 5.87357 10.3462 5.96769 10.3447C6.02748 10.3445 6.08727 10.3442 6.14887 10.344C6.23075 10.3433 6.23075 10.3433 6.31427 10.3427C6.48983 10.3617 6.60123 10.4057 6.75001 10.5C6.82611 10.6712 6.8573 10.7739 6.81153 10.957C6.75028 11.062 6.704 11.1275 6.60938 11.2031C6.50305 11.2191 6.50305 11.2191 6.38032 11.2169C6.33636 11.2164 6.2924 11.216 6.24711 11.2155C6.17845 11.2137 6.17845 11.2137 6.10841 11.2119C6.06209 11.2113 6.01577 11.2106 5.96805 11.21C5.85368 11.2083 5.73936 11.206 5.62501 11.2031C5.62599 11.2303 5.62697 11.2575 5.62798 11.2855C5.6319 11.4094 5.63432 11.5333 5.63673 11.6572C5.63908 11.7214 5.63908 11.7214 5.64149 11.7868C5.64446 11.9915 5.6455 12.1072 5.53638 12.2851C5.41565 12.3949 5.37251 12.42 5.20899 12.4307C5.06435 12.422 4.99171 12.4115 4.87501 12.3281C4.71481 12.0886 4.76382 11.7756 4.76388 11.4985C4.76368 11.394 4.76198 11.2897 4.7602 11.1853C4.75992 11.1185 4.75974 11.0518 4.75965 10.985C4.75926 10.9246 4.75888 10.8642 4.75848 10.802C4.78501 10.614 4.83399 10.5376 4.96876 10.4062C5.20095 10.3289 5.44215 10.3488 5.68533 10.3481Z" fill="#1A434E"/>
</g>
<defs>
<clipPath id="clip0_12_48">
<rect width="24" height="24" fill="white"/>
</clipPath>
</defs>
</svg>
