<svg width="24" height="26" viewBox="0 0 24 26" fill="none" xmlns="http://www.w3.org/2000/svg">
<path fill-rule="evenodd" clip-rule="evenodd" d="M21.221 6.05219L21.968 7.3483V7.35929C22.5917 8.45215 22.2193 9.84343 21.1332 10.4787C20.7857 10.6778 20.4974 10.966 20.2985 11.3135C19.9923 11.8389 19.9082 12.4648 20.0649 13.0523C20.2217 13.6398 20.6061 14.1407 21.1332 14.4439C21.6602 14.7472 22.0447 15.248 22.2014 15.8356C22.3581 16.4232 22.2741 17.049 21.968 17.5744L21.1771 18.8924C20.5415 19.9852 19.142 20.3584 18.0467 19.7273C17.7115 19.5356 17.3342 19.43 16.9483 19.4197C16.3386 19.4167 15.753 19.6577 15.3218 20.0888C14.8907 20.52 14.6497 21.1056 14.6526 21.7153C14.6466 22.9789 13.6206 24 12.357 24H10.8522C9.58433 24 8.55654 22.9722 8.55654 21.7044C8.55252 21.3175 8.44643 20.9387 8.24898 20.6059C7.94787 20.0796 7.44897 19.6954 6.86319 19.5386C6.27741 19.3818 5.65328 19.4656 5.12953 19.7712C4.59675 20.0699 3.96692 20.1439 3.37941 19.9769C2.79191 19.81 2.29517 19.4158 1.9991 18.8815L1.24121 17.5744C0.611059 16.4824 0.984654 15.0863 2.07599 14.455C2.78627 14.0449 3.22382 13.287 3.22382 12.4668C3.22382 11.6467 2.78627 10.8888 2.07599 10.4787C0.983267 9.8431 0.610078 8.44363 1.24121 7.3483L2.04303 6.03023C2.67492 4.93351 4.07526 4.55518 5.17346 5.18446C5.50614 5.38189 5.88504 5.488 6.27187 5.492C7.52696 5.49214 8.54951 4.48427 8.56752 3.22931C8.56459 2.62147 8.80402 2.03754 9.23279 1.60669C9.66156 1.17586 10.2444 0.933655 10.8522 0.933655H12.357C12.9774 0.933399 13.5715 1.18429 14.004 1.62917C14.4365 2.07404 14.6705 2.67503 14.6526 3.29521C14.6567 3.68203 14.7627 4.06094 14.9601 4.39361C15.2671 4.91699 15.7695 5.29679 16.3568 5.44927C16.9441 5.60174 17.5679 5.51437 18.0906 5.20643C19.1888 4.57715 20.5892 4.95548 21.221 6.05219ZM11.61 8.55363C9.44881 8.55363 7.69681 10.3056 7.69681 12.4668C7.69681 14.628 9.44881 16.38 11.61 16.38C13.7712 16.38 15.5232 14.628 15.5232 12.4668C15.5232 10.3056 13.7712 8.55363 11.61 8.55363ZM9.19681 12.4668C9.19681 11.1341 10.2772 10.0536 11.61 10.0536C12.9428 10.0536 14.0232 11.1341 14.0232 12.4668C14.0232 13.7996 12.9428 14.88 11.61 14.88C10.2772 14.88 9.19681 13.7996 9.19681 12.4668Z" fill="#1A434E"/>
</svg>
