<svg width="24" height="26" viewBox="0 0 24 26" fill="none" xmlns="http://www.w3.org/2000/svg">
<path fill-rule="evenodd" clip-rule="evenodd" d="M21.968 7.3483L21.221 6.05219C20.5892 4.95548 19.1888 4.57715 18.0906 5.20643C17.5679 5.51437 16.9441 5.60174 16.3568 5.44927C15.7695 5.29679 15.2671 4.91699 14.9601 4.39361C14.7627 4.06094 14.6567 3.68203 14.6526 3.29521C14.6705 2.67503 14.4365 2.07404 14.004 1.62917C13.5715 1.18429 12.9774 0.933399 12.357 0.933655H10.8522C10.2444 0.933655 9.66156 1.17586 9.23279 1.60669C8.80401 2.03754 8.56459 2.62147 8.56752 3.22931C8.54951 4.48427 7.52696 5.49214 6.27187 5.492C5.88504 5.488 5.50614 5.38189 5.17346 5.18446C4.07526 4.55518 2.67492 4.93351 2.04303 6.03023L1.24121 7.3483C0.610079 8.44363 0.983267 9.8431 2.07599 10.4787C2.78627 10.8888 3.22382 11.6467 3.22382 12.4668C3.22382 13.287 2.78627 14.0449 2.07599 14.455C0.984654 15.0863 0.611059 16.4824 1.24121 17.5744L1.9991 18.8815C2.29517 19.4158 2.79191 19.81 3.37941 19.9769C3.96692 20.1439 4.59675 20.0699 5.12953 19.7712C5.65328 19.4656 6.27741 19.3818 6.86319 19.5386C7.44897 19.6954 7.94787 20.0796 8.24898 20.6059C8.44643 20.9387 8.55252 21.3175 8.55654 21.7044C8.55654 22.9722 9.58433 24 10.8522 24H12.357C13.6206 24 14.6466 22.9789 14.6526 21.7153C14.6497 21.1056 14.8907 20.52 15.3218 20.0888C15.753 19.6577 16.3386 19.4167 16.9483 19.4197C17.3342 19.43 17.7115 19.5356 18.0467 19.7273C19.142 20.3584 20.5415 19.9852 21.1771 18.8924L21.968 17.5744C22.2741 17.049 22.3581 16.4232 22.2014 15.8356C22.0447 15.248 21.6602 14.7472 21.1332 14.4439C20.6061 14.1407 20.2217 13.6398 20.0649 13.0523C19.9082 12.4648 19.9923 11.8389 20.2985 11.3135C20.4974 10.966 20.7857 10.6778 21.1332 10.4787C22.2193 9.84343 22.5917 8.45215 21.968 7.35929V7.3483Z" stroke="#616161" stroke-width="1.5" stroke-linecap="round" stroke-linejoin="round"/>
<path d="M11.61 15.63C13.357 15.63 14.7732 14.2138 14.7732 12.4668C14.7732 10.7198 13.357 9.30363 11.61 9.30363C9.86302 9.30363 8.44681 10.7198 8.44681 12.4668C8.44681 14.2138 9.86302 15.63 11.61 15.63Z" stroke="#616161" stroke-width="1.5" stroke-linecap="round" stroke-linejoin="round"/>
</svg>
