<svg width="12" height="12" viewBox="0 0 12 12" fill="none" xmlns="http://www.w3.org/2000/svg">
<path d="M7.52343 1.03125C7.53672 1.03941 7.55001 1.04758 7.5637 1.05599C7.92362 1.282 8.24496 1.60283 8.46093 1.96875C8.46974 1.98359 8.47854 1.99844 8.48761 2.01373C8.89571 2.71217 8.99225 3.50705 8.78832 4.2897C8.58938 5.00647 8.09767 5.63239 7.45605 6.00439C6.81022 6.36572 5.99974 6.50483 5.276 6.31073C5.24382 6.30114 5.21171 6.29132 5.17968 6.28125C5.16353 6.27622 5.14738 6.2712 5.13075 6.26603C4.68117 6.12129 4.30404 5.87765 3.96093 5.55468C3.94706 5.54233 3.9332 5.52997 3.91891 5.51724C3.44464 5.07676 3.14694 4.37237 3.11385 3.73237C3.10272 3.38296 3.11977 3.05678 3.21093 2.71875C3.21495 2.70329 3.21896 2.68782 3.2231 2.67189C3.40457 1.99378 3.88482 1.399 4.47656 1.03125C4.48994 1.02289 4.50333 1.01454 4.51713 1.00593C5.42324 0.454184 6.6262 0.473114 7.52343 1.03125ZM4.49999 2.01562C4.48196 2.03366 4.46392 2.0517 4.44534 2.07028C4.05527 2.48161 3.87749 3.00205 3.88073 3.56278C3.88978 3.8913 3.96951 4.18667 4.12499 4.47656C4.13675 4.49982 4.1485 4.52309 4.16061 4.54706C4.41643 5.02383 4.87891 5.36839 5.38838 5.53396C5.92905 5.69436 6.50243 5.63557 7.00023 5.37136C7.16572 5.27827 7.31196 5.16544 7.45312 5.03906C7.46795 5.02616 7.48279 5.01326 7.49807 4.99997C7.86347 4.66133 8.09576 4.12987 8.11459 3.63675C8.13022 2.97527 7.91593 2.44884 7.46191 1.96728C7.07432 1.58805 6.54311 1.38961 6.00585 1.37549C5.42336 1.38646 4.91209 1.60353 4.49999 2.01562Z" fill="#1A434E"/>
<path d="M5.9839 7.11621C6.00654 7.11622 6.02918 7.11624 6.0525 7.11625C6.42513 7.11721 6.78324 7.13899 7.14845 7.21875C7.18331 7.22628 7.18331 7.22628 7.21887 7.23397C7.68771 7.33884 8.13233 7.50603 8.5547 7.73437C8.56873 7.74186 8.58276 7.74934 8.59722 7.75706C9.50341 8.24362 10.2437 9.05401 10.5527 10.0444C10.6508 10.3745 10.7573 10.8122 10.6626 11.1519C10.5941 11.2646 10.5091 11.3485 10.3828 11.3906C10.2426 11.4044 10.1461 11.3745 10.0313 11.2969C9.9516 11.2111 9.91296 11.151 9.90483 11.0354C9.87151 10.6069 9.80114 10.2304 9.60939 9.84375C9.59803 9.8204 9.58667 9.79704 9.57496 9.77298C9.14519 8.93851 8.29606 8.4008 7.42824 8.11661C6.23287 7.74375 4.92915 7.85817 3.81859 8.4343C3.58376 8.5598 3.36638 8.70965 3.16408 8.88281C3.14486 8.89916 3.12565 8.9155 3.10585 8.93234C2.51122 9.45218 2.16673 10.1274 2.10234 10.9143C2.10003 10.9507 2.10003 10.9507 2.09767 10.9878C2.08792 11.1222 2.05982 11.2081 1.95997 11.3027C1.84427 11.3799 1.75728 11.4029 1.6172 11.3906C1.49131 11.3469 1.40844 11.266 1.33595 11.1562C1.16655 10.6196 1.47499 9.87825 1.71287 9.40832C2.19797 8.48675 3.09161 7.81251 4.0547 7.45312C4.0739 7.44591 4.09309 7.4387 4.11287 7.43127C4.71909 7.20731 5.34012 7.11484 5.9839 7.11621Z" fill="#1A434E"/>
</svg>
